# Blender v2.93.5 OBJ File: ''
# www.blender.org
mtllib bowlSurface.mtl
o Plane
v -6.517368 7.755919 -0.342389
v -0.965335 8.803596 10.000002
v -2.094893 8.260683 -9.999999
v 8.843938 8.507793 -13.142865
v 8.601817 7.356150 11.845420
v 18.187956 8.327330 3.858802
v 8.672000 0.862889 0.198280
v 8.483986 2.909743 -0.104577
v 14.297741 9.509064 -8.108593
v 8.772872 8.479280 -13.066986
v 8.508350 3.648515 2.366414
v 7.396736 3.255358 -1.121584
v 9.963923 3.542966 0.499871
v 8.185566 3.526804 -1.955776
v 6.284752 4.106745 2.247162
v 9.338198 3.685103 -1.280603
v 6.920324 3.210885 -0.129366
v 8.256425 3.791051 -2.795412
vt 0.000000 0.000000
vt 1.000000 0.000000
vt 1.000000 0.767260
vt 1.000000 1.000000
vt 0.897224 1.000000
vt 0.895765 0.895765
vt 0.000000 1.000000
vt 0.790151 1.000000
vt 1.000000 0.793222
vt 1.000000 0.000000
vt 1.000000 1.000000
vt 1.000000 1.000000
vt 1.000000 1.000000
vt 1.000000 1.000000
vt 1.000000 1.000000
vt 1.000000 1.000000
vt 0.000000 1.000000
vn 0.3130 0.9133 -0.2606
vn 0.2663 0.9144 -0.3050
vn 0.2514 0.9193 -0.3029
vn 0.1000 0.9698 0.2227
vn 0.1638 0.9536 0.2526
vn 0.2656 0.9490 0.1701
vn 0.2185 0.9297 0.2965
vn 0.1083 0.9215 0.3729
vn -0.1897 0.9804 -0.0525
vn -0.0729 0.9397 -0.3342
vn -0.0264 0.9311 -0.3639
vn -0.4862 0.8723 -0.0520
vn -0.4526 0.8911 -0.0316
vn -0.4420 0.8358 0.3257
vn -0.3744 0.8435 0.3851
vn -0.4965 0.8088 0.3153
vn 0.2366 0.9284 -0.2867
vn -0.4592 0.8202 0.3413
vn 0.3118 0.9307 0.1914
vn 0.0995 0.9033 0.4174
usemtl None
s 1
f 1/1/1 2/2/2 15/3/3
f 8/4/4 12/5/5 17/6/6
f 3/7/7 12/5/5 18/8/8
f 8/4/9 15/3/3 11/9/10
f 5/10/11 6/11/12 13/12/13
f 8/4/9 16/13/14 14/14/15
f 9/15/16 16/13/14 6/11/12
f 11/9/10 13/12/13 8/4/9
f 17/6/6 12/5/5 3/7/7
f 14/14/15 16/13/14 9/15/16
f 13/12/13 16/13/14 8/4/9
f 11/9/10 15/3/3 2/2/2
f 17/6/17 15/3/3 8/4/9
f 9/15/16 10/16/18 14/14/15
f 6/11/12 16/13/14 13/12/13
f 13/12/13 11/9/10 5/10/11
f 2/2/2 5/10/11 11/9/10
f 15/3/3 17/6/17 1/1/1
f 3/7/7 1/1/19 17/6/6
f 18/8/8 12/5/5 8/4/4
f 18/8/8 4/17/20 3/7/7
