# This file uses centimeters as units for non-parametric coordinates.

mtllib hus.mtl
g default
v -0.500000 -0.500000 0.500000
v 0.000000 -0.500000 0.500000
v 0.500000 -0.500000 0.500000
v -0.500000 0.000000 0.500000
v 0.000000 0.000000 0.500000
v 0.500000 0.000000 0.500000
v -0.500000 0.500000 0.500000
v 0.000000 0.500000 0.500000
v 0.500000 0.500000 0.500000
v -0.500000 0.962350 0.000000
v 0.000000 0.962350 0.000000
v 0.500000 0.962350 0.000000
v -0.500000 0.500000 -0.500000
v 0.000000 0.500000 -0.500000
v 0.500000 0.500000 -0.500000
v -0.500000 0.000000 -0.500000
v 0.000000 0.000000 -0.500000
v 0.500000 0.000000 -0.500000
v -0.500000 -0.500000 -0.500000
v 0.000000 -0.500000 -0.500000
v 0.500000 -0.500000 -0.500000
v -0.500000 -0.500000 0.000000
v 0.000000 -0.500000 0.000000
v 0.500000 -0.500000 0.000000
v 0.500000 0.000000 0.000000
v -0.500000 0.000000 0.000000
v 0.500000 -0.500000 -0.149230
v 0.000000 -0.500000 -0.149230
v -0.500000 -0.500000 -0.149230
v -0.500000 0.000000 -0.149230
v -0.500000 0.824357 -0.149230
v 0.000000 0.824357 -0.149230
v 0.500000 0.824357 -0.149230
v 0.500000 0.000000 -0.149230
v 0.500000 -0.500000 0.149230
v 0.000000 -0.500000 0.149230
v -0.500000 -0.500000 0.149230
v -0.500000 0.000000 0.149230
v -0.500000 0.824357 0.149230
v 0.000000 0.824357 0.149230
v 0.500000 0.824357 0.149230
v 0.500000 0.000000 0.149230
v 0.500000 0.477305 -0.500000
v 0.000000 0.477305 -0.500000
v -0.500000 0.477305 -0.500000
v -0.500000 0.786940 -0.149230
v -0.500000 0.918669 0.000000
v -0.500000 0.786940 0.149230
v -0.500000 0.477305 0.500000
v 0.000000 0.477305 0.500000
v 0.500000 0.477305 0.500000
v 0.500000 0.786940 0.149230
v 0.500000 0.918669 0.000000
v 0.500000 0.786940 -0.149230
v -0.536200 0.459746 0.518100
v 0.000000 0.459746 0.518100
v 0.000000 0.484085 0.518100
v -0.536200 0.484085 0.518100
v 0.536200 0.459746 0.518100
v 0.536200 0.484085 0.518100
v -0.536200 0.484085 -0.518100
v 0.000000 0.484085 -0.518100
v 0.000000 0.459746 -0.518100
v -0.536200 0.459746 -0.518100
v 0.536200 0.484085 -0.518100
v 0.536200 0.459746 -0.518100
v 0.536200 0.791799 -0.141934
v 0.536200 0.831925 -0.141934
v 0.536200 0.791799 0.141934
v 0.536200 0.933065 0.000000
v 0.536200 0.979909 0.000000
v 0.536200 0.831925 0.141934
v -0.536200 0.791799 -0.141934
v -0.536200 0.831925 -0.141934
v -0.536200 0.933065 0.000000
v -0.536200 0.791799 0.141934
v -0.536200 0.831925 0.141934
v -0.536200 0.979909 0.000000
vt 0.375000 0.000000
vt 0.500000 0.000000
vt 0.625000 0.000000
vt 0.375000 0.125000
vt 0.500000 0.125000
vt 0.625000 0.125000
vt 0.375000 0.250000
vt 0.500000 0.250000
vt 0.625000 0.250000
vt 0.375000 0.375000
vt 0.500000 0.375000
vt 0.625000 0.375000
vt 0.375000 0.500000
vt 0.500000 0.500000
vt 0.625000 0.500000
vt 0.375000 0.625000
vt 0.500000 0.625000
vt 0.625000 0.625000
vt 0.375000 0.750000
vt 0.500000 0.750000
vt 0.625000 0.750000
vt 0.375000 0.875000
vt 0.500000 0.875000
vt 0.625000 0.875000
vt 0.375000 1.000000
vt 0.500000 1.000000
vt 0.625000 1.000000
vt 0.875000 0.000000
vt 0.875000 0.125000
vt 0.750000 0.125000
vt 0.875000 0.250000
vt 0.750000 0.250000
vt 0.125000 0.000000
vt 0.250000 0.000000
vt 0.125000 0.125000
vt 0.250000 0.125000
vt 0.125000 0.250000
vt 0.250000 0.250000
vt 0.625000 0.837693
vt 0.787307 0.000000
vt 0.500000 0.837693
vt 0.212693 0.000000
vt 0.375000 0.837693
vt 0.212693 0.125000
vt 0.212693 0.250000
vt 0.375000 0.412307
vt 0.500000 0.412307
vt 0.625000 0.412307
vt 0.787307 0.250000
vt 0.787307 0.125000
vt 0.625000 0.912307
vt 0.712692 0.000000
vt 0.500000 0.912307
vt 0.287307 0.000000
vt 0.375000 0.912307
vt 0.287307 0.125000
vt 0.287307 0.250000
vt 0.375000 0.337693
vt 0.500000 0.337693
vt 0.625000 0.337693
vt 0.712692 0.250000
vt 0.712692 0.125000
vt 0.625000 0.505674
vt 0.875000 0.244326
vt 0.500000 0.505674
vt 0.125000 0.244326
vt 0.375000 0.505674
vt 0.212693 0.244326
vt 0.250000 0.244326
vt 0.287307 0.244326
vt 0.375000 0.244326
vt 0.500000 0.244326
vt 0.625000 0.244326
vt 0.712692 0.244326
vt 0.750000 0.244326
vt 0.787307 0.244326
vt 0.375000 0.244326
vt 0.500000 0.244326
vt 0.500000 0.250000
vt 0.375000 0.250000
vt 0.625000 0.244326
vt 0.625000 0.250000
vt 0.375000 0.500000
vt 0.500000 0.500000
vt 0.500000 0.505674
vt 0.375000 0.505674
vt 0.625000 0.500000
vt 0.625000 0.505674
vt 0.787307 0.244326
vt 0.875000 0.244326
vt 0.875000 0.250000
vt 0.787307 0.250000
vt 0.712692 0.244326
vt 0.750000 0.244326
vt 0.750000 0.250000
vt 0.712692 0.250000
vt 0.125000 0.244326
vt 0.212693 0.244326
vt 0.212693 0.250000
vt 0.125000 0.250000
vt 0.250000 0.244326
vt 0.287307 0.244326
vt 0.287307 0.250000
vt 0.250000 0.250000
vn 0.000000 0.000000 1.000000
vn 0.000000 0.000000 1.000000
vn 0.000000 0.000000 1.000000
vn 0.000000 0.000000 1.000000
vn 0.000000 0.000000 1.000000
vn 0.000000 0.000000 1.000000
vn 0.000000 0.000000 1.000000
vn 0.000000 0.000000 1.000000
vn 0.000000 0.000000 1.000000
vn 0.000000 0.000000 1.000000
vn 0.000000 0.000000 1.000000
vn 0.000000 0.000000 1.000000
vn 0.000000 0.734209 0.678924
vn 0.000000 0.734209 0.678923
vn 0.000000 1.000000 0.000000
vn 0.000000 1.000000 0.000000
vn 0.000000 0.734209 0.678924
vn 0.000000 1.000000 0.000000
vn 0.000000 0.734209 -0.678924
vn 0.000000 0.734209 -0.678924
vn 0.000000 0.734209 -0.678923
vn 0.000000 0.734209 -0.678924
vn 0.000000 0.734209 -0.678923
vn 0.000000 0.734209 -0.678924
vn 0.000000 0.000000 -1.000000
vn 0.000000 0.000000 -1.000000
vn 0.000000 0.000000 -1.000000
vn 0.000000 0.000000 -1.000000
vn 0.000000 0.000000 -1.000000
vn 0.000000 0.000000 -1.000000
vn 0.000000 0.000000 -1.000000
vn 0.000000 0.000000 -1.000000
vn 0.000000 0.000000 -1.000000
vn 0.000000 0.000000 -1.000000
vn 0.000000 0.000000 -1.000000
vn 0.000000 0.000000 -1.000000
vn 0.000000 -1.000000 0.000000
vn 0.000000 -1.000000 0.000000
vn 0.000000 -1.000000 0.000000
vn 0.000000 -1.000000 0.000000
vn 0.000000 -1.000000 0.000000
vn 0.000000 -1.000000 0.000000
vn 0.000000 -1.000000 0.000000
vn 0.000000 -1.000000 0.000000
vn 0.000000 -1.000000 0.000000
vn 0.000000 -1.000000 0.000000
vn 0.000000 -1.000000 0.000000
vn 0.000000 -1.000000 0.000000
vn 1.000000 0.000000 0.000000
vn 1.000000 0.000000 0.000000
vn 1.000000 0.000000 0.000000
vn 1.000000 0.000000 0.000000
vn 1.000000 0.000000 0.000000
vn 1.000000 0.000000 0.000000
vn 1.000000 0.000000 0.000000
vn 1.000000 0.000000 0.000000
vn 1.000000 0.000000 0.000000
vn 1.000000 0.000000 0.000000
vn 1.000000 0.000000 0.000000
vn 1.000000 0.000000 0.000000
vn -1.000000 0.000000 0.000000
vn -1.000000 0.000000 0.000000
vn -1.000000 0.000000 0.000000
vn -1.000000 0.000000 0.000000
vn -1.000000 0.000000 0.000000
vn -1.000000 0.000000 0.000000
vn -1.000000 0.000000 0.000000
vn -1.000000 0.000000 0.000000
vn -1.000000 0.000000 0.000000
vn -1.000000 0.000000 0.000000
vn -1.000000 0.000000 0.000000
vn -1.000000 0.000000 0.000000
vn -1.000000 0.000000 0.000000
vn -1.000000 0.000000 0.000000
vn -1.000000 0.000000 0.000000
vn -1.000000 0.000000 0.000000
vn 0.000000 -1.000000 0.000000
vn 0.000000 -1.000000 0.000000
vn 0.000000 -1.000000 0.000000
vn -1.000000 0.000000 0.000000
vn -1.000000 0.000000 0.000000
vn -1.000000 0.000000 0.000000
vn -1.000000 0.000000 0.000000
vn 0.000000 0.734209 0.678924
vn 0.000000 0.734209 0.678923
vn 0.000000 0.734209 0.678923
vn 1.000000 0.000000 0.000000
vn 1.000000 0.000000 0.000000
vn 1.000000 0.000000 0.000000
vn 1.000000 0.000000 0.000000
vn 1.000000 0.000000 0.000000
vn 1.000000 0.000000 0.000000
vn 0.000000 0.000000 -1.000000
vn 0.000000 0.000000 -1.000000
vn 0.000000 0.000000 -1.000000
vn -1.000000 0.000000 0.000000
vn -1.000000 0.000000 0.000000
vn -1.000000 0.000000 0.000000
vn -1.000000 0.000000 0.000000
vn -1.000000 0.000000 0.000000
vn 0.000000 0.000000 1.000000
vn 0.000000 0.000000 1.000000
vn 0.000000 0.000000 1.000000
vn 1.000000 0.000000 0.000000
vn 1.000000 0.000000 0.000000
vn 1.000000 0.000000 0.000000
vn 1.000000 0.000000 0.000000
vn 1.000000 0.000000 0.000000
vn 1.000000 0.000000 0.000000
vn 0.000000 -0.717760 -0.696291
vn 0.000000 -0.717760 -0.696291
vn 0.000000 -0.717760 -0.696290
vn 0.000000 -0.717760 -0.696290
vn 0.000000 0.750971 0.660335
vn 0.000000 0.750972 0.660334
vn 0.000000 0.750971 0.660335
vn 0.000000 0.750972 0.660334
vn 0.000000 -0.717760 -0.696291
vn 0.000000 -0.717760 -0.696291
vn 0.000000 -0.717760 -0.696291
vn 0.000000 -0.717760 -0.696291
vn 0.000000 0.750971 0.660335
vn 0.000000 0.750971 0.660335
vn 0.000000 0.750971 0.660335
vn 0.000000 0.750971 0.660335
vn 0.000000 0.750971 -0.660335
vn 0.000000 0.750971 -0.660335
vn 0.000000 0.750971 -0.660335
vn 0.000000 0.750971 -0.660335
vn 0.000000 -0.717760 0.696291
vn 0.000000 -0.717760 0.696291
vn 0.000000 -0.717760 0.696291
vn 0.000000 -0.717760 0.696291
vn 0.000000 0.750971 -0.660335
vn 0.000000 0.750972 -0.660334
vn 0.000000 0.750971 -0.660335
vn 0.000000 0.750972 -0.660334
vn 0.000000 -0.717760 0.696291
vn 0.000000 -0.717760 0.696291
vn 0.000000 -0.717760 0.696290
vn 0.000000 -0.717760 0.696290
vn -0.032730 -0.749297 0.661425
vn -0.032729 -0.749297 0.661425
vn -0.032730 -0.749297 0.661425
vn -0.032729 -0.749297 0.661424
vn -0.016661 0.734108 -0.678829
vn -0.016661 0.734108 -0.678829
vn -0.016662 0.734108 -0.678829
vn -0.016662 0.734108 -0.678829
vn -0.032730 -0.749296 -0.661426
vn 0.242270 -0.691835 -0.680198
vn 0.001321 -0.745394 -0.666623
vn 0.271295 -0.682191 -0.678980
vn -0.016661 0.734106 0.678830
vn -0.050430 0.728952 0.682705
vn -0.291338 0.666216 0.686497
vn -0.318288 0.656204 0.684170
vn 0.032731 -0.749297 0.661425
vn 0.032731 -0.749297 0.661425
vn 0.032729 -0.749297 0.661425
vn 0.032729 -0.749297 0.661425
vn 0.016661 0.734107 -0.678829
vn 0.016662 0.734108 -0.678828
vn 0.016661 0.734107 -0.678829
vn 0.016662 0.734108 -0.678828
vn 0.032730 -0.749296 -0.661426
vn -0.001321 -0.745394 -0.666623
vn -0.242270 -0.691835 -0.680198
vn -0.271295 -0.682191 -0.678980
vn 0.016661 0.734106 0.678830
vn 0.291338 0.666216 0.686497
vn 0.050430 0.728951 0.682706
vn 0.318288 0.656204 0.684170
vn 0.032730 -0.749296 0.661426
vn -0.242270 -0.691835 0.680198
vn -0.001321 -0.745394 0.666623
vn -0.271295 -0.682191 0.678980
vn 0.016661 0.734106 -0.678830
vn 0.050430 0.728952 -0.682705
vn 0.291338 0.666216 -0.686497
vn 0.318288 0.656204 -0.684170
vn -0.032730 -0.749296 0.661426
vn 0.001321 -0.745394 0.666623
vn 0.242270 -0.691835 0.680198
vn 0.271295 -0.682191 0.678980
vn -0.016661 0.734106 -0.678830
vn -0.291338 0.666216 -0.686497
vn -0.050430 0.728951 -0.682706
vn -0.318288 0.656204 -0.684170
vn 0.032730 -0.749297 -0.661425
vn 0.032729 -0.749297 -0.661425
vn 0.032730 -0.749297 -0.661425
vn 0.032729 -0.749297 -0.661424
vn 0.016661 0.734108 0.678829
vn 0.016661 0.734108 0.678829
vn 0.016662 0.734108 0.678829
vn 0.016662 0.734108 0.678829
vn -0.032731 -0.749297 -0.661425
vn -0.032731 -0.749297 -0.661425
vn -0.032729 -0.749297 -0.661425
vn -0.032729 -0.749297 -0.661425
vn -0.016661 0.734107 0.678829
vn -0.016662 0.734108 0.678828
vn -0.016661 0.734107 0.678829
vn -0.016662 0.734108 0.678828
s 1
g pCube1
usemtl lambert2SG
f 1/1/1 2/2/2 4/4/3
f 4/4/3 2/2/2 5/5/4
f 2/2/2 3/3/5 5/5/4
f 5/5/4 3/3/5 6/6/6
s 2
f 55/77/7 56/78/8 58/80/9
f 58/80/9 56/78/8 57/79/10
f 56/78/8 59/81/11 57/79/10
f 57/79/10 59/81/11 60/82/12
s 3
f 39/58/13 40/59/14 10/10/15
f 10/10/15 40/59/14 11/11/16
f 40/59/14 41/60/17 11/11/16
f 11/11/16 41/60/17 12/12/18
f 31/46/19 32/47/20 13/13/21
f 13/13/21 32/47/20 14/14/22
f 32/47/20 33/48/23 14/14/22
f 14/14/22 33/48/23 15/15/24
s 5
f 61/83/25 62/84/26 64/86/27
f 64/86/27 62/84/26 63/85/28
f 62/84/26 65/87/29 63/85/28
f 63/85/28 65/87/29 66/88/30
s 6
f 16/16/31 17/17/32 19/19/33
f 19/19/33 17/17/32 20/20/34
f 17/17/32 18/18/35 20/20/34
f 20/20/34 18/18/35 21/21/36
s 7
f 19/19/37 20/20/38 29/43/39
f 29/43/39 20/20/38 28/41/40
f 20/20/38 21/21/41 28/41/40
f 28/41/40 21/21/41 27/39/42
f 22/22/43 23/23/44 37/55/45
f 37/55/45 23/23/44 36/53/46
f 23/23/44 24/24/47 36/53/46
f 36/53/46 24/24/47 35/51/48
s 9
f 34/50/49 27/40/50 18/29/51
f 18/29/51 27/40/50 21/28/52
s 10
f 66/90/53 65/91/54 67/89/55
f 67/89/55 65/91/54 68/92/56
f 69/93/57 70/94/58 72/96/59
f 72/96/59 70/94/58 71/95/60
s 12
f 19/33/61 29/42/62 16/35/63
f 16/35/63 29/42/62 30/44/64
f 22/34/65 37/54/66 26/36/67
f 26/36/67 37/54/66 38/56/68
s 14
f 64/97/69 73/98/70 61/100/71
f 61/100/71 73/98/70 74/99/72
f 76/102/73 77/103/74 75/101/75
f 75/101/75 77/103/74 78/104/76
s 7
f 28/41/40 27/39/42 23/23/44
f 23/23/44 27/39/42 24/24/47
f 29/43/39 28/41/40 22/22/43
f 22/22/43 28/41/40 23/23/44
s 12
f 30/44/64 29/42/62 26/36/67
f 26/36/67 29/42/62 22/34/65
s 14
f 73/98/70 75/101/75 74/99/72
f 74/99/72 75/101/75 78/104/76
s 3
f 10/10/15 11/11/16 31/46/19
f 31/46/19 11/11/16 32/47/20
f 11/11/16 12/12/18 32/47/20
f 32/47/20 12/12/18 33/48/23
s 10
f 67/89/55 68/92/56 70/94/58
f 70/94/58 68/92/56 71/95/60
s 7
f 36/53/46 35/51/48 2/26/77
f 2/26/77 35/51/48 3/27/78
f 37/55/45 36/53/46 1/25/79
f 1/25/79 36/53/46 2/26/77
s 12
f 38/56/68 37/54/66 4/4/80
f 4/4/80 37/54/66 1/1/81
s 14
f 77/103/74 76/102/73 58/80/82
f 58/80/82 76/102/73 55/77/83
s 3
f 7/7/84 8/8/85 39/58/13
f 39/58/13 8/8/85 40/59/14
f 8/8/85 9/9/86 40/59/14
f 40/59/14 9/9/86 41/60/17
s 10
f 59/81/87 69/93/57 60/82/88
f 60/82/88 69/93/57 72/96/59
s 9
f 3/3/89 35/52/90 6/6/91
f 6/6/91 35/52/90 42/62/92
s 6
f 44/65/93 43/63/94 17/17/32
f 17/17/32 43/63/94 18/18/35
f 45/67/95 44/65/93 16/16/31
f 16/16/31 44/65/93 17/17/32
s 12
f 16/35/63 30/44/64 45/66/96
f 45/66/96 30/44/64 46/68/97
f 47/69/98 46/68/97 26/36/67
f 26/36/67 46/68/97 30/44/64
f 38/56/68 48/70/99 26/36/67
f 26/36/67 48/70/99 47/69/98
f 48/70/99 38/56/68 49/71/100
f 49/71/100 38/56/68 4/4/80
s 1
f 4/4/3 5/5/4 49/71/101
f 49/71/101 5/5/4 50/72/102
f 5/5/4 6/6/6 50/72/102
f 50/72/102 6/6/6 51/73/103
s 9
f 6/6/91 42/62/92 51/73/104
f 51/73/104 42/62/92 52/74/105
f 42/62/92 25/30/106 52/74/105
f 52/74/105 25/30/106 53/75/107
f 34/50/49 54/76/108 25/30/106
f 25/30/106 54/76/108 53/75/107
f 18/29/51 43/64/109 34/50/49
f 34/50/49 43/64/109 54/76/108
s 18
f 50/72/110 56/78/111 49/71/112
f 49/71/112 56/78/111 55/77/113
s 19
f 8/8/114 7/7/115 57/79/116
f 57/79/116 7/7/115 58/80/117
s 20
f 50/72/118 51/73/119 56/78/120
f 56/78/120 51/73/119 59/81/121
s 21
f 8/8/122 57/79/123 9/9/124
f 9/9/124 57/79/123 60/82/125
s 22
f 14/14/126 62/84/127 13/13/128
f 13/13/128 62/84/127 61/83/129
s 23
f 44/65/130 45/67/131 63/85/132
f 63/85/132 45/67/131 64/86/133
s 24
f 14/14/134 15/15/135 62/84/136
f 62/84/136 15/15/135 65/87/137
s 25
f 44/65/138 63/85/139 43/63/140
f 43/63/140 63/85/139 66/88/141
s 26
f 54/76/142 43/64/143 67/89/144
f 67/89/144 43/64/143 66/90/145
s 27
f 33/49/146 68/92/147 15/31/148
f 15/31/148 68/92/147 65/91/149
s 28
f 52/74/150 53/75/151 69/93/152
f 69/93/152 53/75/151 70/94/153
s 29
f 41/61/154 72/96/155 12/32/156
f 12/32/156 72/96/155 71/95/157
s 30
f 46/68/158 73/98/159 45/66/160
f 45/66/160 73/98/159 64/97/161
s 31
f 31/45/162 13/37/163 74/99/164
f 74/99/164 13/37/163 61/100/165
s 32
f 48/70/166 76/102/167 47/69/168
f 47/69/168 76/102/167 75/101/169
s 33
f 39/57/170 10/38/171 77/103/172
f 77/103/172 10/38/171 78/104/173
s 34
f 46/68/174 47/69/175 73/98/176
f 73/98/176 47/69/175 75/101/177
s 35
f 31/45/178 74/99/179 10/38/180
f 10/38/180 74/99/179 78/104/181
s 36
f 54/76/182 67/89/183 53/75/184
f 53/75/184 67/89/183 70/94/185
s 37
f 33/49/186 12/32/187 68/92/188
f 68/92/188 12/32/187 71/95/189
s 38
f 48/70/190 49/71/191 76/102/192
f 76/102/192 49/71/191 55/77/193
s 39
f 39/57/194 77/103/195 7/7/196
f 7/7/196 77/103/195 58/80/197
s 40
f 52/74/198 69/93/199 51/73/200
f 51/73/200 69/93/199 59/81/201
s 41
f 41/61/202 9/9/203 72/96/204
f 72/96/204 9/9/203 60/82/205
