####
#
# OBJ File Generated by Meshlab
#
####
# Object goat _L02.obj
#
# Vertices: 96
# Faces: 28
#
####
mtllib ./goat _L02.obj.mtl

vn 0.577350 0.804092 -0.141783
v 0.156250 1.370788 -0.633091
vn 0.577350 -0.141783 -0.804092
v 0.156250 0.858818 -0.991576
vn 0.577350 0.141783 0.804092
v 0.156250 1.119848 -0.274712
vn 0.577350 -0.804092 0.141783
v 0.156250 0.607878 -0.633197
vn -0.577350 -0.141783 -0.804092
v -0.156250 0.858818 -0.991576
vn -0.577350 0.804092 -0.141783
v -0.156250 1.370788 -0.633091
vn -0.577350 -0.804092 0.141783
v -0.156250 0.607878 -0.633197
vn -0.577350 0.141783 0.804092
v -0.156250 1.119848 -0.274712
vn 0.577350 0.577350 0.577350
v 0.281250 1.062500 0.562500
vn 0.577350 0.577350 -0.577350
v 0.281250 1.062500 -0.437500
vn 0.577350 -0.577350 0.577350
v 0.281250 0.375000 0.562500
vn 0.577350 -0.577350 -0.577350
v 0.281250 0.375000 -0.437500
vn -0.577350 0.577350 -0.577350
v -0.281250 1.062500 -0.437500
vn -0.577350 0.577350 0.577350
v -0.281250 1.062500 0.562500
vn -0.577350 -0.577350 -0.577350
v -0.281250 0.375000 -0.437500
vn -0.577350 -0.577350 0.577350
v -0.281250 0.375000 0.562500
vn 0.577350 0.577350 0.577350
v 0.343750 1.125000 0.187500
vn 0.499142 0.866520 0.000000
v 0.343750 1.125000 -0.500000
vn 0.287165 -0.677324 0.677324
v 0.343750 0.250000 0.187500
vn 0.000000 -0.866520 -0.499142
v 0.343750 0.250000 -0.500000
vn -0.677324 0.677324 -0.287165
v -0.343750 1.125000 -0.500000
vn -0.577350 0.577350 0.577350
v -0.343750 1.125000 0.187500
vn -0.577350 -0.577350 -0.577350
v -0.343750 0.250000 -0.500000
vn -0.577350 -0.577350 0.577350
v -0.343750 0.250000 0.187500
vn 0.000000 0.000000 1.000000
v 0.343750 1.312500 -0.562500
vn 0.577350 0.577350 -0.577350
v 0.343750 1.312500 -0.625000
vn 0.000000 0.000000 1.000000
v 0.343750 1.187500 -0.562500
vn 0.577350 -0.577350 -0.577350
v 0.343750 1.187500 -0.625000
vn -0.577350 0.577350 -0.577350
v 0.156250 1.312500 -0.625000
vn 0.000000 0.000000 1.000000
v 0.156250 1.312500 -0.562500
vn -0.577350 -0.577350 -0.577350
v 0.156250 1.187500 -0.625000
vn 0.000000 0.000000 1.000000
v 0.156250 1.187500 -0.562500
vn 0.577350 0.577350 0.577350
v -0.156250 1.312500 -0.562500
vn 0.577350 0.577350 -0.577350
v -0.156250 1.312500 -0.625000
vn 0.577350 -0.577350 0.577350
v -0.156250 1.187500 -0.562500
vn 0.577350 -0.577350 -0.577350
v -0.156250 1.187500 -0.625000
vn -0.577350 0.577350 -0.577350
v -0.343750 1.312500 -0.625000
vn -0.577350 0.577350 0.577350
v -0.343750 1.312500 -0.562500
vn -0.577350 -0.577350 -0.577350
v -0.343750 1.187500 -0.625000
vn -0.577350 -0.577350 0.577350
v -0.343750 1.187500 -0.562500
vn 0.577350 0.577350 0.577350
v -0.030625 1.625000 -0.500000
vn 0.577350 0.577350 -0.577350
v -0.030625 1.625000 -0.625000
vn 0.577350 -0.577350 0.577350
v -0.030625 1.187500 -0.500000
vn 0.577350 -0.577350 -0.577350
v -0.030625 1.187500 -0.625000
vn -0.577350 0.577350 -0.577350
v -0.155625 1.625000 -0.625000
vn -0.577350 0.577350 0.577350
v -0.155625 1.625000 -0.500000
vn -0.577350 -0.577350 -0.577350
v -0.155625 1.187500 -0.625000
vn -0.577350 -0.577350 0.577350
v -0.155625 1.187500 -0.500000
vn 0.577350 0.577350 0.577350
v 0.155625 1.625000 -0.500000
vn 0.635385 0.772196 0.000000
v 0.155625 1.625000 -0.625000
vn 0.174454 0.000000 0.984665
v 0.155625 1.187500 -0.500000
vn 0.577350 -0.577350 -0.577350
v 0.155625 1.187500 -0.625000
vn 0.000000 1.000000 0.000000
v 0.030625 1.625000 -0.625000
vn 0.000000 0.707107 0.707107
v 0.030625 1.625000 -0.500000
vn -0.577350 -0.577350 -0.577350
v 0.030625 1.187500 -0.625000
vn 0.000000 0.000000 1.000000
v 0.030625 1.187500 -0.500000
vn 0.000000 0.000000 1.000000
v 0.000063 0.812500 -0.562500
vn 0.000000 0.000000 -1.000000
v 0.000063 0.812500 -0.875000
vn 0.000000 -0.707062 0.707152
v 0.000063 0.375000 -0.562500
vn 0.000000 -0.707139 -0.707075
v 0.000063 0.375000 -0.875000
vn 0.000000 0.000000 -1.000000
v 0.000000 0.812500 -0.875000
vn 0.000000 0.000000 1.000000
v 0.000000 0.812500 -0.562500
vn 0.000000 -0.707062 -0.707152
v 0.000000 0.375000 -0.875000
vn 0.000000 -0.707139 0.707075
v 0.000000 0.375000 -0.562500
vn 0.577350 0.577350 0.577350
v -0.031250 0.625000 -0.187500
vn 0.577350 0.577350 -0.577350
v -0.031250 0.625000 -0.375000
vn 0.577350 -0.577350 0.577350
v -0.031250 0.000000 -0.187500
vn 0.577350 -0.577350 -0.577350
v -0.031250 0.000000 -0.375000
vn -0.577350 0.577350 -0.577350
v -0.218750 0.625000 -0.375000
vn -0.577350 0.577350 0.577350
v -0.218750 0.625000 -0.187500
vn -0.577350 -0.577350 -0.577350
v -0.218750 0.000000 -0.375000
vn -0.577350 -0.577350 0.577350
v -0.218750 0.000000 -0.187500
vn 0.577350 0.577350 0.577350
v 0.218750 0.625000 -0.187500
vn 0.577350 0.577350 -0.577350
v 0.218750 0.625000 -0.375000
vn 0.577350 -0.577350 0.577350
v 0.218750 0.000000 -0.187500
vn 0.577350 -0.577350 -0.577350
v 0.218750 0.000000 -0.375000
vn -0.577350 0.577350 -0.577350
v 0.031250 0.625000 -0.375000
vn -0.577350 0.577350 0.577350
v 0.031250 0.625000 -0.187500
vn -0.577350 -0.577350 -0.577350
v 0.031250 0.000000 -0.375000
vn -0.577350 -0.577350 0.577350
v 0.031250 0.000000 -0.187500
vn 0.577350 0.577350 0.577350
v 0.218750 0.375000 0.437500
vn 0.577350 0.577350 -0.577350
v 0.218750 0.375000 0.250000
vn 0.577350 -0.577350 0.577350
v 0.218750 0.000000 0.437500
vn 0.577350 -0.577350 -0.577350
v 0.218750 0.000000 0.250000
vn -0.577350 0.577350 -0.577350
v 0.031250 0.375000 0.250000
vn -0.577350 0.577350 0.577350
v 0.031250 0.375000 0.437500
vn -0.577350 -0.577350 -0.577350
v 0.031250 0.000000 0.250000
vn -0.577350 -0.577350 0.577350
v 0.031250 0.000000 0.437500
vn 0.577350 0.577350 0.577350
v -0.031250 0.375000 0.437500
vn 0.577350 0.577350 -0.577350
v -0.031250 0.375000 0.250000
vn 0.577350 -0.577350 0.577350
v -0.031250 0.000000 0.437500
vn 0.577350 -0.577350 -0.577350
v -0.031250 0.000000 0.250000
vn -0.577350 0.577350 -0.577350
v -0.218750 0.375000 0.250000
vn -0.577350 0.577350 0.577350
v -0.218750 0.375000 0.437500
vn -0.577350 -0.577350 -0.577350
v -0.218750 0.000000 0.250000
vn -0.577350 -0.577350 0.577350
v -0.218750 0.000000 0.437500
# 96 vertices, 0 vertices normals


usemtl material_0
vt 0.015869 0.734131
vt 0.015869 0.562744
vt 0.265381 0.734131
f 9/1/9 11/2/11 10/3/10
vt 0.265381 0.562744
f 11/2/11 12/4/12 10/3/10
vt 0.406494 0.734131
vt 0.406494 0.562744
vt 0.656006 0.734131
f 13/5/13 15/6/15 14/7/14
vt 0.656006 0.562744
f 15/6/15 16/8/16 14/7/14
vt 0.406006 0.734619
vt 0.406006 0.984131
vt 0.265869 0.734619
f 13/9/13 14/10/14 10/11/10
vt 0.265869 0.984131
f 14/10/14 9/12/9 10/11/10
vt 0.546631 0.984131
vt 0.546631 0.734619
vt 0.406494 0.984131
f 16/13/16 15/14/15 11/15/11
vt 0.406494 0.734619
f 15/14/15 12/16/12 11/15/11
vt 0.656494 0.734131
vt 0.656494 0.562744
vt 0.796631 0.734131
f 14/17/14 16/18/16 9/19/9
vt 0.796631 0.562744
f 16/18/16 11/20/11 9/19/9
vt 0.265869 0.734131
vt 0.265869 0.562744
vt 0.406006 0.734131
f 10/21/10 12/22/12 13/23/13
vt 0.406006 0.562744
f 12/22/12 15/24/15 13/23/13
vt 0.000244 0.390381
vt 0.000244 0.172119
vt 0.171631 0.390381
f 17/25/17 19/26/19 18/27/18
vt 0.343994 0.390381
vt 0.343994 0.172119
vt 0.515381 0.390381
f 21/28/21 23/29/23 22/30/22
vt 0.515381 0.172119
f 23/29/23 24/31/24 22/30/22
vt 0.343506 0.390869
vt 0.343506 0.562256
vt 0.172119 0.390869
f 21/32/21 22/33/22 18/34/18
vt 0.172119 0.562256
f 22/33/22 17/35/17 18/34/18
vt 0.515381 0.562256
vt 0.515381 0.390869
vt 0.343994 0.562256
f 24/36/24 23/37/23 19/38/19
vt 0.343994 0.390869
f 23/37/23 20/39/20 19/38/19
vt 0.515869 0.390381
vt 0.515869 0.172119
vt 0.687256 0.390381
f 22/40/22 24/41/24 17/42/17
vt 0.687256 0.172119
f 24/41/24 19/43/19 17/42/17
vt 0.172119 0.172119
vt 0.343506 0.172119
vt 0.343506 0.390381
f 20/44/20 23/45/23 21/46/21
vt 0.437744 0.187256
vt 0.437744 0.109619
vt 0.437256 0.187256
f 64/47/64 63/48/63 59/49/59
vt 0.437256 0.109619
f 63/48/63 60/50/60 59/49/59
vt 0.515869 0.109131
vt 0.515869 0.000244
vt 0.515381 0.109131
f 62/51/62 64/52/64 57/53/57
vt 0.515381 0.000244
f 64/52/64 59/54/59 57/53/57
vt 0.437744 0.109131
vt 0.437744 0.000244
vt 0.437256 0.109131
f 58/55/58 60/56/60 61/57/61
vt 0.437256 0.000244
f 60/56/60 63/58/63 61/57/61
# 28 faces, 58 coords texture

# End of File
