# Blender v2.93.5 OBJ File: ''
# www.blender.org
mtllib T.mtl
o Cube_Cube.002
v 1.000000 -2.000000 1.000000
v 1.000000 -0.000000 1.000000
v 1.000000 -0.000000 -1.000000
v -1.000000 -2.000000 1.000000
v -1.000000 -2.000000 -1.000000
v 1.000000 -2.000000 -1.000000
v 3.000000 -2.000000 1.000000
v 3.000000 -2.000000 -1.000000
v 3.000000 -0.000000 -1.000000
v 3.000000 -0.000000 1.000000
v -1.000000 2.000000 1.000000
v 1.000000 2.000000 1.000000
v -1.000000 2.000000 -1.000000
v 1.000000 2.000000 -1.000000
v -1.000000 0.000000 1.000000
v -1.000000 0.000000 -1.000000
v -3.000000 0.000000 -1.000000
v -3.000000 0.000000 1.000000
v -3.000000 -2.000000 -1.000000
v -3.000000 -2.000000 1.000000
vt 0.600000 0.400000
vt 0.400000 0.600000
vt 0.400000 0.400000
vt 0.400000 0.600000
vt 0.600000 0.800000
vt 0.400000 0.800000
vt 0.400000 0.200000
vt 0.600000 0.200000
vt 0.600000 0.000000
vt 0.000000 0.200000
vt 0.200000 0.400000
vt 0.000000 0.400000
vt 0.800000 0.200000
vt 1.000000 0.000000
vt 1.000000 0.200000
vt 1.000000 0.400000
vt 0.200000 1.000000
vt 0.000000 0.800000
vt 0.200000 0.800000
vt 0.800000 0.600000
vt 0.800000 0.400000
vt 0.200000 0.000000
vt 0.200000 0.200000
vt 0.200000 1.000000
vt 0.400000 0.800000
vt 0.400000 1.000000
vt 0.000000 0.600000
vt 0.200000 0.800000
vt 0.000000 0.800000
vt 0.800000 0.400000
vt 0.800000 0.200000
vt 0.400000 0.400000
vt 0.600000 0.600000
vt 0.800000 0.800000
vt 0.600000 0.800000
vt 0.400000 0.800000
vt 0.200000 0.600000
vt 0.400000 0.600000
vt 0.000000 0.600000
vt 0.600000 0.600000
vt 0.600000 0.600000
vt 0.400000 0.000000
vt 0.800000 0.000000
vt 0.000000 1.000000
vt 1.000000 0.600000
vt 0.000000 0.000000
vt 0.200000 0.800000
vt 0.200000 0.600000
vt 0.400000 0.200000
vt 0.800000 0.600000
vt 0.200000 0.800000
vt 0.200000 0.600000
vt 0.600000 1.000000
vt 0.400000 1.000000
vt 0.400000 0.800000
vt 0.600000 0.800000
vn 0.0000 0.0000 -1.0000
vn 0.0000 1.0000 0.0000
vn 0.0000 0.0000 1.0000
vn 0.0000 -1.0000 0.0000
vn 1.0000 0.0000 0.0000
vn -1.0000 0.0000 0.0000
usemtl None
s off
f 3/1/1 8/2/1 6/3/1
f 16/4/2 18/5/2 15/6/2
f 3/1/1 5/7/1 16/8/1
f 5/7/1 17/9/1 16/8/1
f 1/10/3 15/11/3 4/12/3
f 4/13/4 19/14/4 5/15/4
f 6/16/4 4/13/4 5/15/4
f 2/17/2 9/18/2 3/19/2
f 6/16/4 7/20/4 1/21/4
f 1/10/3 10/22/3 2/23/3
f 10/24/5 8/25/5 9/26/5
f 19/27/6 18/28/6 17/29/6
f 14/30/1 16/8/1 13/31/1
f 2/23/3 11/32/3 15/11/3
f 16/33/6 11/34/6 13/35/6
f 14/36/5 2/37/5 3/38/5
f 15/11/3 20/39/3 4/12/3
f 3/1/1 9/40/1 8/2/1
f 16/4/2 17/41/2 18/5/2
f 3/1/1 6/3/1 5/7/1
f 5/7/1 19/42/1 17/9/1
f 1/10/3 2/23/3 15/11/3
f 4/13/4 20/43/4 19/14/4
f 6/16/4 1/21/4 4/13/4
f 2/17/2 10/44/2 9/18/2
f 6/16/4 8/45/4 7/20/4
f 1/10/3 7/46/3 10/22/3
f 10/24/5 7/47/5 8/25/5
f 19/27/6 20/48/6 18/28/6
f 14/30/1 3/1/1 16/8/1
f 2/23/3 12/49/3 11/32/3
f 16/33/6 15/50/6 11/34/6
f 14/36/5 12/51/5 2/37/5
f 15/11/3 18/52/3 20/39/3
f 13/53/2 11/54/2 12/55/2 14/56/2
